<svg width="24" height="24" xmlns="http://www.w3.org/2000/svg">

 <g>
  <title>Layer 1</title>
  <path stroke-width="0" fill="#24877b" stroke="#24877b" id="svg_1" d="m17.86637,11.3118l-12,0l0,-5l12,0m-1.5,11a1.5,1.5 0 0 1 -1.5,-1.5a1.5,1.5 0 0 1 1.5,-1.5a1.5,1.5 0 0 1 1.5,1.5a1.5,1.5 0 0 1 -1.5,1.5m-9,0a1.5,1.5 0 0 1 -1.5,-1.5a1.5,1.5 0 0 1 1.5,-1.5a1.5,1.5 0 0 1 1.5,1.5a1.5,1.5 0 0 1 -1.5,1.5m-3.5,-1c0,0.88 0.39,1.67 1,2.22l0,1.78a1,1 0 0 0 1,1l1,0a1,1 0 0 0 1,-1l0,-1l8,0l0,1a1,1 0 0 0 1,1l1,0a1,1 0 0 0 1,-1l0,-1.78c0.61,-0.55 1,-1.34 1,-2.22l0,-10c0,-3.5 -3.58,-4 -8,-4c-4.42,0 -8,0.5 -8,4l0,10z"/>
 </g>
</svg>